<mxfile host="app.diagrams.net" modified="2023-07-04T09:00:25.699Z" agent="Mozilla/5.0 (Windows NT 10.0; Win64; x64) AppleWebKit/537.36 (KHTML, like Gecko) Chrome/114.0.0.0 Safari/537.36" etag="36Y6u_e0k_IfYo3f0PP2" version="21.3.5" type="device">
  <diagram name="Page-1" id="G5Ecn0lg3arLgMw1ygux">
    <mxGraphModel dx="1259" dy="682" grid="1" gridSize="10" guides="1" tooltips="1" connect="1" arrows="1" fold="1" page="1" pageScale="1" pageWidth="827" pageHeight="1169" math="0" shadow="0">
      <root>
        <mxCell id="0" />
        <mxCell id="1" parent="0" />
        <mxCell id="zzUA0vZjNHNcqAL-HrGj-1" value="" style="rounded=0;whiteSpace=wrap;html=1;fillColor=none;" parent="1" vertex="1">
          <mxGeometry x="280" y="80" width="320" height="40" as="geometry" />
        </mxCell>
        <mxCell id="zzUA0vZjNHNcqAL-HrGj-3" value="a&lt;sub&gt;0&lt;/sub&gt;" style="whiteSpace=wrap;html=1;aspect=fixed;fillColor=none;" parent="1" vertex="1">
          <mxGeometry x="280" y="80" width="40" height="40" as="geometry" />
        </mxCell>
        <mxCell id="zzUA0vZjNHNcqAL-HrGj-4" value="a&lt;sub&gt;1&lt;/sub&gt;" style="whiteSpace=wrap;html=1;aspect=fixed;fillColor=none;" parent="1" vertex="1">
          <mxGeometry x="320" y="80" width="40" height="40" as="geometry" />
        </mxCell>
        <mxCell id="zzUA0vZjNHNcqAL-HrGj-5" value="a&lt;sub&gt;4&lt;/sub&gt;" style="whiteSpace=wrap;html=1;aspect=fixed;fillColor=none;" parent="1" vertex="1">
          <mxGeometry x="440" y="80" width="40" height="40" as="geometry" />
        </mxCell>
        <mxCell id="zzUA0vZjNHNcqAL-HrGj-6" value="a&lt;sub&gt;3&lt;/sub&gt;" style="whiteSpace=wrap;html=1;aspect=fixed;fillColor=none;" parent="1" vertex="1">
          <mxGeometry x="400" y="80" width="40" height="40" as="geometry" />
        </mxCell>
        <mxCell id="zzUA0vZjNHNcqAL-HrGj-7" value="a&lt;sub&gt;2&lt;/sub&gt;" style="whiteSpace=wrap;html=1;aspect=fixed;fillColor=none;" parent="1" vertex="1">
          <mxGeometry x="360" y="80" width="40" height="40" as="geometry" />
        </mxCell>
        <mxCell id="zzUA0vZjNHNcqAL-HrGj-8" value="a&lt;sub&gt;5&lt;/sub&gt;" style="whiteSpace=wrap;html=1;aspect=fixed;fillColor=none;" parent="1" vertex="1">
          <mxGeometry x="480" y="80" width="40" height="40" as="geometry" />
        </mxCell>
        <mxCell id="zzUA0vZjNHNcqAL-HrGj-9" value="a&lt;sub&gt;6&lt;/sub&gt;" style="whiteSpace=wrap;html=1;aspect=fixed;fillColor=none;" parent="1" vertex="1">
          <mxGeometry x="520" y="80" width="40" height="40" as="geometry" />
        </mxCell>
        <mxCell id="zzUA0vZjNHNcqAL-HrGj-10" value="a&lt;sub&gt;7&lt;/sub&gt;" style="whiteSpace=wrap;html=1;aspect=fixed;fillColor=none;" parent="1" vertex="1">
          <mxGeometry x="560" y="80" width="40" height="40" as="geometry" />
        </mxCell>
        <mxCell id="zzUA0vZjNHNcqAL-HrGj-12" value="a&lt;sub&gt;0&lt;/sub&gt;" style="whiteSpace=wrap;html=1;aspect=fixed;fillColor=none;" parent="1" vertex="1">
          <mxGeometry x="200" y="220" width="40" height="40" as="geometry" />
        </mxCell>
        <mxCell id="zzUA0vZjNHNcqAL-HrGj-13" value="a&lt;sub&gt;2&lt;/sub&gt;" style="whiteSpace=wrap;html=1;aspect=fixed;fillColor=none;" parent="1" vertex="1">
          <mxGeometry x="240" y="220" width="40" height="40" as="geometry" />
        </mxCell>
        <mxCell id="zzUA0vZjNHNcqAL-HrGj-14" value="a&lt;sub&gt;6&lt;/sub&gt;" style="whiteSpace=wrap;html=1;aspect=fixed;fillColor=none;" parent="1" vertex="1">
          <mxGeometry x="320" y="220" width="40" height="40" as="geometry" />
        </mxCell>
        <mxCell id="zzUA0vZjNHNcqAL-HrGj-15" value="a&lt;sub&gt;4&lt;/sub&gt;" style="whiteSpace=wrap;html=1;aspect=fixed;fillColor=none;" parent="1" vertex="1">
          <mxGeometry x="280" y="220" width="40" height="40" as="geometry" />
        </mxCell>
        <mxCell id="zzUA0vZjNHNcqAL-HrGj-16" value="a&lt;sub&gt;1&lt;/sub&gt;" style="whiteSpace=wrap;html=1;aspect=fixed;fillColor=none;" parent="1" vertex="1">
          <mxGeometry x="520" y="220" width="40" height="40" as="geometry" />
        </mxCell>
        <mxCell id="zzUA0vZjNHNcqAL-HrGj-17" value="a&lt;sub&gt;3&lt;/sub&gt;" style="whiteSpace=wrap;html=1;aspect=fixed;fillColor=none;" parent="1" vertex="1">
          <mxGeometry x="560" y="220" width="40" height="40" as="geometry" />
        </mxCell>
        <mxCell id="zzUA0vZjNHNcqAL-HrGj-18" value="a&lt;sub&gt;7&lt;/sub&gt;" style="whiteSpace=wrap;html=1;aspect=fixed;fillColor=none;" parent="1" vertex="1">
          <mxGeometry x="640" y="220" width="40" height="40" as="geometry" />
        </mxCell>
        <mxCell id="zzUA0vZjNHNcqAL-HrGj-19" value="a&lt;sub&gt;5&lt;/sub&gt;" style="whiteSpace=wrap;html=1;aspect=fixed;fillColor=none;" parent="1" vertex="1">
          <mxGeometry x="600" y="220" width="40" height="40" as="geometry" />
        </mxCell>
        <mxCell id="zzUA0vZjNHNcqAL-HrGj-20" value="" style="edgeStyle=elbowEdgeStyle;elbow=vertical;endArrow=classic;html=1;curved=0;rounded=0;endSize=8;startSize=8;exitX=0.5;exitY=1;exitDx=0;exitDy=0;entryX=0.5;entryY=0;entryDx=0;entryDy=0;" parent="1" source="zzUA0vZjNHNcqAL-HrGj-3" target="zzUA0vZjNHNcqAL-HrGj-12" edge="1">
          <mxGeometry width="50" height="50" relative="1" as="geometry">
            <mxPoint x="190" y="220" as="sourcePoint" />
            <mxPoint x="240" y="170" as="targetPoint" />
            <Array as="points">
              <mxPoint x="260" y="140" />
            </Array>
          </mxGeometry>
        </mxCell>
        <mxCell id="zzUA0vZjNHNcqAL-HrGj-21" value="" style="edgeStyle=elbowEdgeStyle;elbow=vertical;endArrow=classic;html=1;curved=0;rounded=0;endSize=8;startSize=8;entryX=0.5;entryY=0;entryDx=0;entryDy=0;" parent="1" target="zzUA0vZjNHNcqAL-HrGj-13" edge="1">
          <mxGeometry width="50" height="50" relative="1" as="geometry">
            <mxPoint x="380" y="120" as="sourcePoint" />
            <mxPoint x="300" y="240" as="targetPoint" />
            <Array as="points">
              <mxPoint x="340" y="140" />
              <mxPoint x="340" y="190" />
              <mxPoint x="350" y="200" />
            </Array>
          </mxGeometry>
        </mxCell>
        <mxCell id="zzUA0vZjNHNcqAL-HrGj-22" value="" style="edgeStyle=elbowEdgeStyle;elbow=vertical;endArrow=classic;html=1;curved=0;rounded=0;endSize=8;startSize=8;exitX=0.5;exitY=1;exitDx=0;exitDy=0;" parent="1" source="zzUA0vZjNHNcqAL-HrGj-5" edge="1">
          <mxGeometry width="50" height="50" relative="1" as="geometry">
            <mxPoint x="420" y="120" as="sourcePoint" />
            <mxPoint x="300" y="220" as="targetPoint" />
            <Array as="points">
              <mxPoint x="440" y="140" />
              <mxPoint x="410" y="200" />
              <mxPoint x="380" y="190" />
              <mxPoint x="390" y="200" />
            </Array>
          </mxGeometry>
        </mxCell>
        <mxCell id="zzUA0vZjNHNcqAL-HrGj-23" value="" style="edgeStyle=elbowEdgeStyle;elbow=vertical;endArrow=classic;html=1;curved=0;rounded=0;endSize=8;startSize=8;exitX=0.5;exitY=1;exitDx=0;exitDy=0;" parent="1" source="zzUA0vZjNHNcqAL-HrGj-9" edge="1">
          <mxGeometry width="50" height="50" relative="1" as="geometry">
            <mxPoint x="500" y="120" as="sourcePoint" />
            <mxPoint x="340" y="220" as="targetPoint" />
            <Array as="points">
              <mxPoint x="520" y="140" />
              <mxPoint x="510" y="160" />
              <mxPoint x="480" y="210" />
              <mxPoint x="450" y="200" />
              <mxPoint x="420" y="190" />
              <mxPoint x="430" y="200" />
            </Array>
          </mxGeometry>
        </mxCell>
        <mxCell id="zzUA0vZjNHNcqAL-HrGj-24" value="" style="edgeStyle=elbowEdgeStyle;elbow=vertical;endArrow=classic;html=1;curved=0;rounded=0;endSize=8;startSize=8;exitX=0.5;exitY=1;exitDx=0;exitDy=0;entryX=0.5;entryY=0;entryDx=0;entryDy=0;" parent="1" target="zzUA0vZjNHNcqAL-HrGj-16" edge="1">
          <mxGeometry width="50" height="50" relative="1" as="geometry">
            <mxPoint x="340" y="120" as="sourcePoint" />
            <mxPoint x="260" y="240" as="targetPoint" />
            <Array as="points">
              <mxPoint x="360" y="140" />
              <mxPoint x="450" y="180" />
            </Array>
          </mxGeometry>
        </mxCell>
        <mxCell id="zzUA0vZjNHNcqAL-HrGj-25" value="" style="edgeStyle=elbowEdgeStyle;elbow=vertical;endArrow=classic;html=1;curved=0;rounded=0;endSize=8;startSize=8;exitX=0.5;exitY=1;exitDx=0;exitDy=0;entryX=0.5;entryY=0;entryDx=0;entryDy=0;" parent="1" target="zzUA0vZjNHNcqAL-HrGj-17" edge="1">
          <mxGeometry width="50" height="50" relative="1" as="geometry">
            <mxPoint x="414" y="120" as="sourcePoint" />
            <mxPoint x="614" y="240" as="targetPoint" />
            <Array as="points">
              <mxPoint x="430" y="140" />
              <mxPoint x="524" y="180" />
            </Array>
          </mxGeometry>
        </mxCell>
        <mxCell id="zzUA0vZjNHNcqAL-HrGj-26" value="" style="edgeStyle=elbowEdgeStyle;elbow=vertical;endArrow=classic;html=1;curved=0;rounded=0;endSize=8;startSize=8;exitX=0.5;exitY=1;exitDx=0;exitDy=0;entryX=0.5;entryY=0;entryDx=0;entryDy=0;" parent="1" target="zzUA0vZjNHNcqAL-HrGj-19" edge="1">
          <mxGeometry width="50" height="50" relative="1" as="geometry">
            <mxPoint x="500" y="120" as="sourcePoint" />
            <mxPoint x="666" y="240" as="targetPoint" />
            <Array as="points">
              <mxPoint x="516" y="140" />
              <mxPoint x="610" y="180" />
            </Array>
          </mxGeometry>
        </mxCell>
        <mxCell id="zzUA0vZjNHNcqAL-HrGj-27" value="" style="edgeStyle=elbowEdgeStyle;elbow=vertical;endArrow=classic;html=1;curved=0;rounded=0;endSize=8;startSize=8;exitX=0.5;exitY=1;exitDx=0;exitDy=0;entryX=0.5;entryY=0;entryDx=0;entryDy=0;" parent="1" target="zzUA0vZjNHNcqAL-HrGj-18" edge="1">
          <mxGeometry width="50" height="50" relative="1" as="geometry">
            <mxPoint x="580" y="120" as="sourcePoint" />
            <mxPoint x="700" y="240" as="targetPoint" />
            <Array as="points">
              <mxPoint x="596" y="140" />
              <mxPoint x="690" y="180" />
            </Array>
          </mxGeometry>
        </mxCell>
        <mxCell id="zzUA0vZjNHNcqAL-HrGj-28" value="" style="edgeStyle=elbowEdgeStyle;elbow=vertical;endArrow=classic;html=1;curved=0;rounded=0;endSize=8;startSize=8;exitX=0.5;exitY=1;exitDx=0;exitDy=0;entryX=0.5;entryY=0;entryDx=0;entryDy=0;" parent="1" target="zzUA0vZjNHNcqAL-HrGj-29" edge="1">
          <mxGeometry width="50" height="50" relative="1" as="geometry">
            <mxPoint x="220" y="260" as="sourcePoint" />
            <mxPoint x="140" y="380" as="targetPoint" />
            <Array as="points">
              <mxPoint x="180" y="280" />
            </Array>
          </mxGeometry>
        </mxCell>
        <mxCell id="zzUA0vZjNHNcqAL-HrGj-29" value="a&lt;sub&gt;0&lt;/sub&gt;" style="whiteSpace=wrap;html=1;aspect=fixed;fillColor=none;" parent="1" vertex="1">
          <mxGeometry x="140" y="360" width="40" height="40" as="geometry" />
        </mxCell>
        <mxCell id="zzUA0vZjNHNcqAL-HrGj-30" value="" style="edgeStyle=elbowEdgeStyle;elbow=vertical;endArrow=classic;html=1;curved=0;rounded=0;endSize=8;startSize=8;exitX=0.5;exitY=1;exitDx=0;exitDy=0;entryX=0.5;entryY=0;entryDx=0;entryDy=0;" parent="1" source="zzUA0vZjNHNcqAL-HrGj-15" target="zzUA0vZjNHNcqAL-HrGj-31" edge="1">
          <mxGeometry width="50" height="50" relative="1" as="geometry">
            <mxPoint x="260" y="260" as="sourcePoint" />
            <mxPoint x="180" y="380" as="targetPoint" />
            <Array as="points">
              <mxPoint x="220" y="280" />
            </Array>
          </mxGeometry>
        </mxCell>
        <mxCell id="zzUA0vZjNHNcqAL-HrGj-31" value="a&lt;sub&gt;4&lt;/sub&gt;" style="whiteSpace=wrap;html=1;aspect=fixed;fillColor=none;" parent="1" vertex="1">
          <mxGeometry x="180" y="360" width="40" height="40" as="geometry" />
        </mxCell>
        <mxCell id="zzUA0vZjNHNcqAL-HrGj-32" value="a&lt;span style=&quot;font-size: 10px;&quot;&gt;&lt;sub&gt;2&lt;/sub&gt;&lt;/span&gt;" style="whiteSpace=wrap;html=1;aspect=fixed;fillColor=none;" parent="1" vertex="1">
          <mxGeometry x="340" y="360" width="40" height="40" as="geometry" />
        </mxCell>
        <mxCell id="zzUA0vZjNHNcqAL-HrGj-33" value="a&lt;span style=&quot;font-size: 10px;&quot;&gt;&lt;sub&gt;6&lt;/sub&gt;&lt;/span&gt;" style="whiteSpace=wrap;html=1;aspect=fixed;fillColor=none;" parent="1" vertex="1">
          <mxGeometry x="380" y="360" width="40" height="40" as="geometry" />
        </mxCell>
        <mxCell id="zzUA0vZjNHNcqAL-HrGj-34" value="" style="edgeStyle=elbowEdgeStyle;elbow=vertical;endArrow=classic;html=1;curved=0;rounded=0;endSize=8;startSize=8;exitX=0.5;exitY=1;exitDx=0;exitDy=0;entryX=0.5;entryY=0;entryDx=0;entryDy=0;" parent="1" source="zzUA0vZjNHNcqAL-HrGj-13" target="zzUA0vZjNHNcqAL-HrGj-32" edge="1">
          <mxGeometry width="50" height="50" relative="1" as="geometry">
            <mxPoint x="310" y="270" as="sourcePoint" />
            <mxPoint x="190" y="390" as="targetPoint" />
            <Array as="points">
              <mxPoint x="300" y="280" />
              <mxPoint x="230" y="290" />
            </Array>
          </mxGeometry>
        </mxCell>
        <mxCell id="zzUA0vZjNHNcqAL-HrGj-35" value="" style="edgeStyle=elbowEdgeStyle;elbow=vertical;endArrow=classic;html=1;curved=0;rounded=0;endSize=8;startSize=8;exitX=0.5;exitY=1;exitDx=0;exitDy=0;entryX=0.5;entryY=0;entryDx=0;entryDy=0;" parent="1" target="zzUA0vZjNHNcqAL-HrGj-33" edge="1">
          <mxGeometry width="50" height="50" relative="1" as="geometry">
            <mxPoint x="340" y="260" as="sourcePoint" />
            <mxPoint x="380" y="380" as="targetPoint" />
            <Array as="points">
              <mxPoint x="380" y="280" />
              <mxPoint x="310" y="290" />
            </Array>
          </mxGeometry>
        </mxCell>
        <mxCell id="zzUA0vZjNHNcqAL-HrGj-36" value="" style="edgeStyle=elbowEdgeStyle;elbow=vertical;endArrow=classic;html=1;curved=0;rounded=0;endSize=8;startSize=8;exitX=0.5;exitY=1;exitDx=0;exitDy=0;entryX=0.5;entryY=0;entryDx=0;entryDy=0;" parent="1" target="zzUA0vZjNHNcqAL-HrGj-37" edge="1">
          <mxGeometry width="50" height="50" relative="1" as="geometry">
            <mxPoint x="540" y="260" as="sourcePoint" />
            <mxPoint x="460" y="380" as="targetPoint" />
            <Array as="points">
              <mxPoint x="500" y="280" />
            </Array>
          </mxGeometry>
        </mxCell>
        <mxCell id="zzUA0vZjNHNcqAL-HrGj-37" value="a&lt;sub&gt;1&lt;/sub&gt;" style="whiteSpace=wrap;html=1;aspect=fixed;fillColor=none;" parent="1" vertex="1">
          <mxGeometry x="460" y="360" width="40" height="40" as="geometry" />
        </mxCell>
        <mxCell id="zzUA0vZjNHNcqAL-HrGj-38" value="" style="edgeStyle=elbowEdgeStyle;elbow=vertical;endArrow=classic;html=1;curved=0;rounded=0;endSize=8;startSize=8;exitX=0.5;exitY=1;exitDx=0;exitDy=0;entryX=0.5;entryY=0;entryDx=0;entryDy=0;" parent="1" target="zzUA0vZjNHNcqAL-HrGj-39" edge="1">
          <mxGeometry width="50" height="50" relative="1" as="geometry">
            <mxPoint x="620" y="260" as="sourcePoint" />
            <mxPoint x="500" y="380" as="targetPoint" />
            <Array as="points">
              <mxPoint x="540" y="280" />
            </Array>
          </mxGeometry>
        </mxCell>
        <mxCell id="zzUA0vZjNHNcqAL-HrGj-39" value="a&lt;sub&gt;5&lt;/sub&gt;" style="whiteSpace=wrap;html=1;aspect=fixed;fillColor=none;" parent="1" vertex="1">
          <mxGeometry x="500" y="360" width="40" height="40" as="geometry" />
        </mxCell>
        <mxCell id="zzUA0vZjNHNcqAL-HrGj-40" value="a&lt;span style=&quot;font-size: 10px;&quot;&gt;&lt;sub&gt;3&lt;/sub&gt;&lt;/span&gt;" style="whiteSpace=wrap;html=1;aspect=fixed;fillColor=none;" parent="1" vertex="1">
          <mxGeometry x="660" y="360" width="40" height="40" as="geometry" />
        </mxCell>
        <mxCell id="zzUA0vZjNHNcqAL-HrGj-41" value="a&lt;span style=&quot;font-size: 10px;&quot;&gt;&lt;sub&gt;7&lt;/sub&gt;&lt;/span&gt;" style="whiteSpace=wrap;html=1;aspect=fixed;fillColor=none;" parent="1" vertex="1">
          <mxGeometry x="700" y="360" width="40" height="40" as="geometry" />
        </mxCell>
        <mxCell id="zzUA0vZjNHNcqAL-HrGj-42" value="" style="edgeStyle=elbowEdgeStyle;elbow=vertical;endArrow=classic;html=1;curved=0;rounded=0;endSize=8;startSize=8;exitX=0.5;exitY=1;exitDx=0;exitDy=0;entryX=0.5;entryY=0;entryDx=0;entryDy=0;" parent="1" target="zzUA0vZjNHNcqAL-HrGj-40" edge="1">
          <mxGeometry width="50" height="50" relative="1" as="geometry">
            <mxPoint x="580" y="260" as="sourcePoint" />
            <mxPoint x="510" y="390" as="targetPoint" />
            <Array as="points">
              <mxPoint x="620" y="280" />
              <mxPoint x="550" y="290" />
            </Array>
          </mxGeometry>
        </mxCell>
        <mxCell id="zzUA0vZjNHNcqAL-HrGj-43" value="" style="edgeStyle=elbowEdgeStyle;elbow=vertical;endArrow=classic;html=1;curved=0;rounded=0;endSize=8;startSize=8;exitX=0.5;exitY=1;exitDx=0;exitDy=0;entryX=0.5;entryY=0;entryDx=0;entryDy=0;" parent="1" target="zzUA0vZjNHNcqAL-HrGj-41" edge="1">
          <mxGeometry width="50" height="50" relative="1" as="geometry">
            <mxPoint x="660" y="260" as="sourcePoint" />
            <mxPoint x="700" y="380" as="targetPoint" />
            <Array as="points">
              <mxPoint x="700" y="280" />
              <mxPoint x="630" y="290" />
            </Array>
          </mxGeometry>
        </mxCell>
        <mxCell id="zzUA0vZjNHNcqAL-HrGj-44" value="a&lt;sub&gt;0&lt;/sub&gt;" style="whiteSpace=wrap;html=1;aspect=fixed;fillColor=none;" parent="1" vertex="1">
          <mxGeometry x="120" y="460" width="40" height="40" as="geometry" />
        </mxCell>
        <mxCell id="zzUA0vZjNHNcqAL-HrGj-45" value="a&lt;sub&gt;4&lt;/sub&gt;" style="whiteSpace=wrap;html=1;aspect=fixed;fillColor=none;" parent="1" vertex="1">
          <mxGeometry x="200" y="460" width="40" height="40" as="geometry" />
        </mxCell>
        <mxCell id="zzUA0vZjNHNcqAL-HrGj-46" value="" style="edgeStyle=elbowEdgeStyle;elbow=vertical;endArrow=classic;html=1;curved=0;rounded=0;endSize=8;startSize=8;exitX=0.5;exitY=1;exitDx=0;exitDy=0;entryX=0.5;entryY=0;entryDx=0;entryDy=0;" parent="1" source="zzUA0vZjNHNcqAL-HrGj-31" target="zzUA0vZjNHNcqAL-HrGj-45" edge="1">
          <mxGeometry width="50" height="50" relative="1" as="geometry">
            <mxPoint x="200" y="420" as="sourcePoint" />
            <mxPoint x="260" y="540" as="targetPoint" />
            <Array as="points">
              <mxPoint x="220" y="430" />
              <mxPoint x="170" y="450" />
            </Array>
          </mxGeometry>
        </mxCell>
        <mxCell id="zzUA0vZjNHNcqAL-HrGj-47" value="" style="edgeStyle=elbowEdgeStyle;elbow=vertical;endArrow=classic;html=1;curved=0;rounded=0;endSize=8;startSize=8;entryX=0.5;entryY=0;entryDx=0;entryDy=0;exitX=0.5;exitY=1;exitDx=0;exitDy=0;" parent="1" source="zzUA0vZjNHNcqAL-HrGj-29" target="zzUA0vZjNHNcqAL-HrGj-44" edge="1">
          <mxGeometry width="50" height="50" relative="1" as="geometry">
            <mxPoint x="170" y="410" as="sourcePoint" />
            <mxPoint x="180" y="460" as="targetPoint" />
            <Array as="points">
              <mxPoint x="150" y="430" />
              <mxPoint x="130" y="450" />
            </Array>
          </mxGeometry>
        </mxCell>
        <mxCell id="zzUA0vZjNHNcqAL-HrGj-48" value="a&lt;sub&gt;2&lt;/sub&gt;" style="whiteSpace=wrap;html=1;aspect=fixed;fillColor=none;" parent="1" vertex="1">
          <mxGeometry x="320" y="460" width="40" height="40" as="geometry" />
        </mxCell>
        <mxCell id="zzUA0vZjNHNcqAL-HrGj-49" value="a&lt;sub&gt;6&lt;/sub&gt;" style="whiteSpace=wrap;html=1;aspect=fixed;fillColor=none;" parent="1" vertex="1">
          <mxGeometry x="400" y="460" width="40" height="40" as="geometry" />
        </mxCell>
        <mxCell id="zzUA0vZjNHNcqAL-HrGj-50" value="" style="edgeStyle=elbowEdgeStyle;elbow=vertical;endArrow=classic;html=1;curved=0;rounded=0;endSize=8;startSize=8;exitX=0.5;exitY=1;exitDx=0;exitDy=0;entryX=0.5;entryY=0;entryDx=0;entryDy=0;" parent="1" source="zzUA0vZjNHNcqAL-HrGj-33" target="zzUA0vZjNHNcqAL-HrGj-49" edge="1">
          <mxGeometry width="50" height="50" relative="1" as="geometry">
            <mxPoint x="400" y="420" as="sourcePoint" />
            <mxPoint x="460" y="540" as="targetPoint" />
            <Array as="points">
              <mxPoint x="410" y="430" />
              <mxPoint x="370" y="450" />
            </Array>
          </mxGeometry>
        </mxCell>
        <mxCell id="zzUA0vZjNHNcqAL-HrGj-51" value="" style="edgeStyle=elbowEdgeStyle;elbow=vertical;endArrow=classic;html=1;curved=0;rounded=0;endSize=8;startSize=8;entryX=0.5;entryY=0;entryDx=0;entryDy=0;exitX=0.5;exitY=1;exitDx=0;exitDy=0;" parent="1" source="zzUA0vZjNHNcqAL-HrGj-32" target="zzUA0vZjNHNcqAL-HrGj-48" edge="1">
          <mxGeometry width="50" height="50" relative="1" as="geometry">
            <mxPoint x="380" y="420" as="sourcePoint" />
            <mxPoint x="380" y="460" as="targetPoint" />
            <Array as="points">
              <mxPoint x="350" y="430" />
              <mxPoint x="330" y="450" />
            </Array>
          </mxGeometry>
        </mxCell>
        <mxCell id="zzUA0vZjNHNcqAL-HrGj-52" value="a&lt;sub&gt;1&lt;/sub&gt;" style="whiteSpace=wrap;html=1;aspect=fixed;fillColor=none;" parent="1" vertex="1">
          <mxGeometry x="440" y="460" width="40" height="40" as="geometry" />
        </mxCell>
        <mxCell id="zzUA0vZjNHNcqAL-HrGj-53" value="a&lt;sub&gt;5&lt;/sub&gt;" style="whiteSpace=wrap;html=1;aspect=fixed;fillColor=none;" parent="1" vertex="1">
          <mxGeometry x="520" y="460" width="40" height="40" as="geometry" />
        </mxCell>
        <mxCell id="zzUA0vZjNHNcqAL-HrGj-54" value="" style="edgeStyle=elbowEdgeStyle;elbow=vertical;endArrow=classic;html=1;curved=0;rounded=0;endSize=8;startSize=8;exitX=0.5;exitY=1;exitDx=0;exitDy=0;entryX=0.5;entryY=0;entryDx=0;entryDy=0;" parent="1" source="zzUA0vZjNHNcqAL-HrGj-39" target="zzUA0vZjNHNcqAL-HrGj-53" edge="1">
          <mxGeometry width="50" height="50" relative="1" as="geometry">
            <mxPoint x="520" y="420" as="sourcePoint" />
            <mxPoint x="580" y="540" as="targetPoint" />
            <Array as="points">
              <mxPoint x="530" y="430" />
              <mxPoint x="490" y="450" />
            </Array>
          </mxGeometry>
        </mxCell>
        <mxCell id="zzUA0vZjNHNcqAL-HrGj-55" value="" style="edgeStyle=elbowEdgeStyle;elbow=vertical;endArrow=classic;html=1;curved=0;rounded=0;endSize=8;startSize=8;exitX=0.5;exitY=1;exitDx=0;exitDy=0;entryX=0.5;entryY=0;entryDx=0;entryDy=0;" parent="1" source="zzUA0vZjNHNcqAL-HrGj-37" target="zzUA0vZjNHNcqAL-HrGj-52" edge="1">
          <mxGeometry width="50" height="50" relative="1" as="geometry">
            <mxPoint x="480" y="420" as="sourcePoint" />
            <mxPoint x="500" y="460" as="targetPoint" />
            <Array as="points">
              <mxPoint x="470" y="430" />
              <mxPoint x="450" y="450" />
            </Array>
          </mxGeometry>
        </mxCell>
        <mxCell id="zzUA0vZjNHNcqAL-HrGj-56" value="a&lt;sub&gt;3&lt;/sub&gt;" style="whiteSpace=wrap;html=1;aspect=fixed;fillColor=none;" parent="1" vertex="1">
          <mxGeometry x="640" y="460" width="40" height="40" as="geometry" />
        </mxCell>
        <mxCell id="zzUA0vZjNHNcqAL-HrGj-57" value="a&lt;sub&gt;7&lt;/sub&gt;" style="whiteSpace=wrap;html=1;aspect=fixed;fillColor=none;" parent="1" vertex="1">
          <mxGeometry x="720" y="460" width="40" height="40" as="geometry" />
        </mxCell>
        <mxCell id="zzUA0vZjNHNcqAL-HrGj-58" value="" style="edgeStyle=elbowEdgeStyle;elbow=vertical;endArrow=classic;html=1;curved=0;rounded=0;endSize=8;startSize=8;exitX=0.5;exitY=1;exitDx=0;exitDy=0;entryX=0.5;entryY=0;entryDx=0;entryDy=0;" parent="1" source="zzUA0vZjNHNcqAL-HrGj-41" target="zzUA0vZjNHNcqAL-HrGj-57" edge="1">
          <mxGeometry width="50" height="50" relative="1" as="geometry">
            <mxPoint x="720" y="420" as="sourcePoint" />
            <mxPoint x="780" y="540" as="targetPoint" />
            <Array as="points">
              <mxPoint x="740" y="430" />
              <mxPoint x="690" y="450" />
            </Array>
          </mxGeometry>
        </mxCell>
        <mxCell id="zzUA0vZjNHNcqAL-HrGj-59" value="" style="edgeStyle=elbowEdgeStyle;elbow=vertical;endArrow=classic;html=1;curved=0;rounded=0;endSize=8;startSize=8;exitX=0.5;exitY=1;exitDx=0;exitDy=0;entryX=0.5;entryY=0;entryDx=0;entryDy=0;" parent="1" source="zzUA0vZjNHNcqAL-HrGj-40" target="zzUA0vZjNHNcqAL-HrGj-56" edge="1">
          <mxGeometry width="50" height="50" relative="1" as="geometry">
            <mxPoint x="680" y="420" as="sourcePoint" />
            <mxPoint x="700" y="460" as="targetPoint" />
            <Array as="points">
              <mxPoint x="670" y="430" />
            </Array>
          </mxGeometry>
        </mxCell>
        <mxCell id="AjkCN6KCklxRRMc7M_ai-5" value="Evaluate at &lt;b&gt;ω&lt;sup&gt;i&lt;/sup&gt;&lt;/b&gt;" style="text;html=1;strokeColor=none;fillColor=none;align=center;verticalAlign=middle;whiteSpace=wrap;rounded=0;" vertex="1" parent="1">
          <mxGeometry x="760" y="85" width="80" height="30" as="geometry" />
        </mxCell>
        <mxCell id="AjkCN6KCklxRRMc7M_ai-6" value="Evaluate at &lt;b&gt;ω&lt;sup&gt;2i&lt;/sup&gt;&lt;/b&gt;" style="text;html=1;strokeColor=none;fillColor=none;align=center;verticalAlign=middle;whiteSpace=wrap;rounded=0;" vertex="1" parent="1">
          <mxGeometry x="760" y="225" width="90" height="30" as="geometry" />
        </mxCell>
        <mxCell id="AjkCN6KCklxRRMc7M_ai-7" value="Evaluate at &lt;b&gt;ω&lt;sup&gt;4i&lt;/sup&gt;&lt;/b&gt;" style="text;html=1;strokeColor=none;fillColor=none;align=center;verticalAlign=middle;whiteSpace=wrap;rounded=0;" vertex="1" parent="1">
          <mxGeometry x="760" y="365" width="90" height="30" as="geometry" />
        </mxCell>
        <mxCell id="AjkCN6KCklxRRMc7M_ai-8" value="Evaluate at &lt;b&gt;ω&lt;sup&gt;8i&lt;/sup&gt;&lt;/b&gt;" style="text;html=1;strokeColor=none;fillColor=none;align=center;verticalAlign=middle;whiteSpace=wrap;rounded=0;" vertex="1" parent="1">
          <mxGeometry x="760" y="465" width="90" height="30" as="geometry" />
        </mxCell>
        <mxCell id="AjkCN6KCklxRRMc7M_ai-9" value="Layer 1" style="text;html=1;strokeColor=none;fillColor=none;align=center;verticalAlign=middle;whiteSpace=wrap;rounded=0;fontStyle=1" vertex="1" parent="1">
          <mxGeometry x="40" y="90" width="80" height="30" as="geometry" />
        </mxCell>
        <mxCell id="AjkCN6KCklxRRMc7M_ai-10" value="Layer 2" style="text;html=1;strokeColor=none;fillColor=none;align=center;verticalAlign=middle;whiteSpace=wrap;rounded=0;fontStyle=1" vertex="1" parent="1">
          <mxGeometry x="40" y="225" width="80" height="30" as="geometry" />
        </mxCell>
        <mxCell id="AjkCN6KCklxRRMc7M_ai-11" value="Layer 3" style="text;html=1;strokeColor=none;fillColor=none;align=center;verticalAlign=middle;whiteSpace=wrap;rounded=0;fontStyle=1" vertex="1" parent="1">
          <mxGeometry x="40" y="365" width="80" height="30" as="geometry" />
        </mxCell>
        <mxCell id="AjkCN6KCklxRRMc7M_ai-12" value="Layer 4" style="text;html=1;strokeColor=none;fillColor=none;align=center;verticalAlign=middle;whiteSpace=wrap;rounded=0;fontStyle=1" vertex="1" parent="1">
          <mxGeometry x="40" y="465" width="80" height="30" as="geometry" />
        </mxCell>
      </root>
    </mxGraphModel>
  </diagram>
</mxfile>
